<?xml version="1.0" encoding="utf-8"?>
<!-- Generator: Adobe Illustrator 25.4.0, SVG Export Plug-In . SVG Version: 6.00 Build 0)  -->
<svg version="1.1" id="Layer_1" xmlns="http://www.w3.org/2000/svg" xmlns:xlink="http://www.w3.org/1999/xlink" x="0px" y="0px"
	 viewBox="0 0 1330 745" style="enable-background:new 0 0 1330 745;" xml:space="preserve">
<style type="text/css">
	.st0{fill:#9CEA00;}
	.st1{fill:#FFFFFF;}
</style>
<g>
	<path class="st0" d="M787.49,236.21v105.19c0,10.1-8.19,18.29-18.29,18.29H664c-68.18,0-123.47-55.29-123.47-123.49
		c0-34.1,13.82-64.98,36.17-87.31c22.34-22.36,53.21-36.17,87.3-36.17h0.02c64.02,0,116.66,48.74,122.84,111.13
		C787.28,227.92,787.49,232.05,787.49,236.21z"/>
	<path class="st1" d="M787.49,236.21v12.35h-63.3c-1.17,0-2.25,0.58-2.9,1.55l-54.35,81.51c-0.67,1.01-2.24,0.53-2.24-0.68v-79.77
		c0-1.44-1.17-2.61-2.61-2.61h-69.19c-0.98,0-1.56-1.09-1.02-1.9l70.58-105.87c0.67-1.01,2.24-0.53,2.24,0.68v79.77
		c0,1.44,1.17,2.61,2.61,2.61h119.55C787.28,227.92,787.49,232.05,787.49,236.21z"/>
</g>
<g>
	<path d="M280.09,477.17v70.27h-19.43l-1.65-22.32c-10.75,16.81-27.21,25.21-49.4,25.21c-20.81,0-38.17-6.99-52.08-20.98
		c-13.92-13.98-20.88-30.76-20.88-50.33c0-21.77,7.13-39.72,21.39-53.84c14.26-14.12,31.79-21.19,52.6-21.19
		c15.98,0,30.31,4.41,42.99,13.23c12.68,8.82,21.01,21.5,25.01,38.03h-26.46c-3.45-9.78-8.99-16.81-16.64-21.08
		c-7.65-4.27-15.81-6.41-24.49-6.41c-14.33,0-26.11,4.69-35.34,14.05c-9.23,9.37-13.85,21.77-13.85,37.2
		c0,13.09,4.44,24.25,13.33,33.48c8.89,9.23,20.36,13.85,34.41,13.85c11.16,0,20.46-3,27.9-8.99c7.44-5.99,12.54-14.02,15.3-24.08
		h-45.06v-22.94h72.34V477.17z"/>
	<path d="M322.26,449.68v12.4c9.23-9.51,21.08-14.26,35.55-14.26v22.53c-15.29,0.55-27.15,5.99-35.55,16.33v60.77h-23.98v-97.76
		H322.26z"/>
	<path d="M458.46,497.01c0,4.83-0.21,8.47-0.62,10.95h-0.21h-74.82c1.51,6.48,4.68,11.68,9.51,15.61
		c4.82,3.93,11.16,5.89,19.01,5.89c9.64,0,16.26-3.03,19.84-9.09h25.42c-2.76,8.96-8.3,16.09-16.64,21.39
		c-8.34,5.31-18.09,7.96-29.25,7.96c-15.43,0-27.94-4.82-37.51-14.47c-9.58-9.64-14.36-21.84-14.36-36.58
		c0-14.74,4.79-26.97,14.36-36.69c9.58-9.71,22.08-14.57,37.51-14.57c13.64,0,24.97,4.62,34,13.85
		C453.74,470.49,458.32,482.41,458.46,497.01z M409.48,467.66c-7.3,0-13.26,2.07-17.88,6.2c-4.62,4.13-7.61,9.58-8.99,16.33h51.67
		c-0.97-7.03-3.58-12.54-7.85-16.54C422.15,469.66,416.5,467.66,409.48,467.66z"/>
	<path d="M565.11,497.01c0,4.83-0.21,8.47-0.62,10.95h-0.21h-74.82c1.51,6.48,4.68,11.68,9.51,15.61
		c4.82,3.93,11.16,5.89,19.01,5.89c9.64,0,16.26-3.03,19.84-9.09h25.42c-2.76,8.96-8.3,16.09-16.64,21.39
		c-8.34,5.31-18.09,7.96-29.25,7.96c-15.43,0-27.94-4.82-37.51-14.47c-9.58-9.64-14.36-21.84-14.36-36.58
		c0-14.74,4.79-26.97,14.36-36.69c9.58-9.71,22.08-14.57,37.51-14.57c13.64,0,24.97,4.62,34,13.85
		C560.39,470.49,564.97,482.41,565.11,497.01z M516.12,467.66c-7.3,0-13.26,2.07-17.88,6.2c-4.62,4.13-7.61,9.58-8.99,16.33h51.67
		c-0.97-7.03-3.58-12.54-7.85-16.54C528.8,469.66,523.15,467.66,516.12,467.66z"/>
	<path d="M630.21,446.58c12.81,0,23.15,4.27,31,12.81c7.85,8.55,11.78,19.91,11.78,34.1v53.94h-23.77v-52.5
		c0-8.54-2.14-15.12-6.41-19.74c-4.27-4.61-10.13-6.92-17.57-6.92c-9.09,0-17.5,4.69-25.21,14.05v65.11h-23.98v-97.76h23.98v8.06
		C608.99,450.3,619.05,446.58,630.21,446.58z"/>
	<path d="M786.05,449.68v97.76h-23.77v-6.82c-8.41,6.06-18.39,9.09-29.97,9.09c-13.64,0-25.25-4.96-34.83-14.88
		c-9.58-9.92-14.36-21.98-14.36-36.17c0-14.19,4.79-26.28,14.36-36.27c9.57-9.99,21.19-14.98,34.83-14.98
		c11.57,0,21.56,3.03,29.97,9.09v-6.82H786.05z M735.83,529.05c11.43,0,20.26-4.61,26.46-13.85v-33.28
		c-6.2-9.23-15.02-13.85-26.46-13.85c-8.27,0-15.16,3.03-20.67,9.09c-5.51,6.07-8.27,13.23-8.27,21.5c0,8.27,2.75,15.4,8.27,21.39
		C720.67,526.05,727.56,529.05,735.83,529.05z"/>
	<path d="M872.03,525.94l3.31,20.46c-9.09,2.75-17.23,4.13-24.39,4.13c-11.71,0-20.95-3.65-27.7-10.95
		c-6.75-7.3-10.13-17.22-10.13-29.76v-40.1H790.8v-20.05h22.32v-35.76h23.77v35.76h36.17v20.05h-36.17v40.1
		c0,12.4,6.2,18.6,18.6,18.6C860.59,528.43,866.1,527.6,872.03,525.94z"/>
	<path d="M975.58,497.01c0,4.83-0.21,8.47-0.62,10.95h-0.21h-74.82c1.52,6.48,4.68,11.68,9.51,15.61
		c4.82,3.93,11.16,5.89,19.01,5.89c9.64,0,16.26-3.03,19.84-9.09h25.42c-2.76,8.96-8.3,16.09-16.64,21.39
		c-8.34,5.31-18.08,7.96-29.25,7.96c-15.43,0-27.94-4.82-37.51-14.47c-9.58-9.64-14.36-21.84-14.36-36.58
		c0-14.74,4.79-26.97,14.36-36.69c9.58-9.71,22.08-14.57,37.51-14.57c13.64,0,24.97,4.62,34,13.85
		C970.86,470.49,975.44,482.41,975.58,497.01z M926.6,467.66c-7.3,0-13.26,2.07-17.88,6.2c-4.62,4.13-7.61,9.58-8.99,16.33h51.67
		c-0.97-7.03-3.58-12.54-7.85-16.54C939.27,469.66,933.62,467.66,926.6,467.66z"/>
	<path d="M1034.48,528.22c6.06,0,11.23-1.58,15.5-4.75c4.27-3.17,6.96-7.37,8.06-12.61h24.39c-1.52,11.44-6.75,20.77-15.71,28.01
		c-8.96,7.23-19.71,10.85-32.24,10.85c-14.75,0-27.08-4.89-37-14.68c-9.92-9.78-14.88-21.91-14.88-36.38
		c0-14.6,4.96-26.8,14.88-36.58c9.92-9.78,22.25-14.67,37-14.67c12.4,0,23.11,3.62,32.14,10.85c9.02,7.23,14.29,16.57,15.81,28.01
		h-24.39c-1.1-5.23-3.79-9.41-8.06-12.5c-4.27-3.1-9.44-4.65-15.5-4.65c-8.27,0-15.02,2.83-20.26,8.47
		c-5.24,5.65-7.85,12.68-7.85,21.08c0,8.41,2.62,15.43,7.85,21.08C1019.46,525.4,1026.22,528.22,1034.48,528.22z"/>
	<path d="M1148.58,446.58c12.81,0,23.15,4.27,31,12.81c7.85,8.55,11.78,19.91,11.78,34.1v53.94h-23.77v-52.5
		c0-8.54-2.14-15.12-6.41-19.74c-4.27-4.61-10.13-6.92-17.57-6.92c-9.09,0-17.5,4.69-25.22,14.05v65.11h-23.97V400.69h23.97v57.04
		C1127.36,450.3,1137.41,446.58,1148.58,446.58z"/>
</g>
<g>
	<path d="M557.26,602.78v17.36h-4.8l-0.41-5.51c-2.66,4.15-6.72,6.23-12.2,6.23c-5.14,0-9.43-1.73-12.87-5.18
		c-3.44-3.46-5.16-7.6-5.16-12.43c0-5.38,1.76-9.81,5.29-13.3c3.52-3.49,7.85-5.23,13-5.23c3.95,0,7.49,1.09,10.62,3.27
		c3.13,2.18,5.19,5.31,6.18,9.4h-6.54c-0.85-2.42-2.22-4.15-4.11-5.21c-1.89-1.05-3.91-1.58-6.05-1.58c-3.54,0-6.45,1.16-8.73,3.47
		c-2.28,2.32-3.42,5.38-3.42,9.19c0,3.23,1.1,5.99,3.29,8.27c2.2,2.28,5.03,3.42,8.5,3.42c2.76,0,5.06-0.74,6.89-2.22
		c1.84-1.48,3.1-3.46,3.78-5.95h-11.13v-5.67h17.87V602.78z"/>
	<path d="M605.1,614.62v5.51h-24.41v-34.72h6.13v29.21H605.1z"/>
	<path d="M627.24,589.99c3.52-3.52,7.79-5.29,12.79-5.29s9.27,1.76,12.79,5.29s5.29,7.79,5.29,12.79c0,5-1.76,9.27-5.29,12.79
		s-7.79,5.29-12.79,5.29s-9.27-1.76-12.79-5.29s-5.29-7.79-5.29-12.79C621.96,597.77,623.72,593.51,627.24,589.99z M640.03,615.13
		c3.37,0,6.2-1.2,8.48-3.6c2.28-2.4,3.42-5.32,3.42-8.76c0-3.44-1.14-6.36-3.42-8.76c-2.28-2.4-5.11-3.6-8.48-3.6
		c-3.34,0-6.15,1.2-8.43,3.6c-2.28,2.4-3.42,5.32-3.42,8.76c0,3.44,1.14,6.36,3.42,8.76C633.89,613.93,636.7,615.13,640.03,615.13z"
		/>
	<path d="M702.28,602.16c2.21,0.44,3.9,1.44,5.06,2.99c1.16,1.55,1.74,3.38,1.74,5.49c0,2.86-1.13,5.16-3.4,6.89
		c-2.26,1.74-5.32,2.6-9.17,2.6h-16.85v-34.72h16.24c3.61,0,6.43,0.81,8.48,2.42c2.04,1.62,3.06,3.82,3.06,6.61
		c0,1.77-0.47,3.36-1.4,4.77C705.1,600.64,703.85,601.62,702.28,602.16z M685.79,590.83v9.24h9.24c2.11,0,3.74-0.43,4.9-1.3
		s1.74-2.05,1.74-3.55c0-1.4-0.55-2.48-1.66-3.24c-1.11-0.77-2.71-1.15-4.83-1.15H685.79z M685.79,614.73h10.47
		c2.18,0,3.85-0.46,5.03-1.38c1.17-0.92,1.76-2.06,1.76-3.42c0-1.43-0.58-2.51-1.74-3.24s-2.76-1.1-4.8-1.1h-10.72V614.73z"/>
	<path d="M752.27,612.43h-16.6l-3.22,7.71h-6.59l15.27-34.93h5.72l15.17,34.93h-6.49L752.27,612.43z M749.92,606.76l-5.97-14.09
		l-5.87,14.09H749.92z"/>
	<path d="M806.2,614.62v5.51h-24.41v-34.72h6.13v29.21H806.2z"/>
</g>
</svg>
